<svg xmlns="http://www.w3.org/2000/svg"  viewBox="0 0 100 100" width="100px" height="100px" baseProfile="basic"><path d="M85.8583374,11c0,0-56.62677,0-56.8128052,0C18.0631104,11,9.12854,19.9345703,9.12854,30.9165039	v53.2324219l0.0361328,0.027771c-0.1091309,1.6035767,0.2417603,3.2269897,1.0872803,4.6900024	C11.7480469,91.4550781,14.4257812,93,17.4150391,93h65.2470703c3.5986328,0,6.7626953-2.2998047,7.8740234-5.722168	l4.9248047-15.1552734c0.3204346-0.9931641,0.4239502-2.0083008,0.3692627-3.0046387l0.1043091-48.0393066	C95.9345093,15.5214844,91.4140015,11,85.8583374,11z" opacity=".35"/><path fill="#F2F2F2" d="M83.8583374,9c0,0-56.62677,0-56.8128052,0C16.0631104,9,7.12854,17.9345703,7.12854,28.9165039v53.2324219	l0.0361328,0.027771c-0.1091309,1.6035767,0.2417603,3.2269897,1.0872803,4.6900024	C9.7480469,89.4550781,12.4257812,91,15.4150391,91h65.2470703c3.5986328,0,6.7626953-2.2998047,7.8740234-5.722168	l4.9248047-15.1552734c0.3204346-0.9931641,0.4239502-2.0083008,0.3692627-3.0046387l0.1043091-48.0393066	C93.9345093,13.5214844,89.4140015,9,83.8583374,9z"/><circle cx="27.046" cy="28.917" r="13.417" fill="#96C362" stroke="#40396E" stroke-miterlimit="10" stroke-width="3"/><path fill="#70BFFF" stroke="#40396E" stroke-miterlimit="10" stroke-width="3" d="M83.8564529,42.3333321H64.1799545	c-1.9760857,0-3.5784187-1.6023331-3.5784187-3.5784149V19.0784168c0-1.9760838,1.6023331-3.5784168,3.5784187-3.5784168h19.678421	c1.9741592,0,3.5764923,1.6023331,3.5764923,3.5784168v19.6784191	C87.4348679,40.730999,85.8325348,42.3333321,83.8564529,42.3333321z"/><path fill="#BD7BC8" stroke="#40396E" stroke-miterlimit="10" stroke-width="3" d="M71.653389,56.7773323l-12.8819199,9.3590813	c-0.6229172,0.4523315-0.885498,1.2573318-0.645916,1.9894943l4.9200821,15.1435852	C63.2833061,84.0035858,63.9675598,84.5,64.73806,84.5h15.9236603c0.7705002,0,1.4547501-0.4964142,1.692421-1.2304993	l4.9200821-15.1435852c0.2376709-0.7340775-0.0230026-1.5371628-0.6459198-1.9894943l-12.8819199-9.3590813	C73.1215591,56.323082,72.2782211,56.323082,71.653389,56.7773323z"/><path fill="#FF7575" stroke="#40396E" stroke-miterlimit="10" stroke-width="3" d="M27.0703087,58.9431686L13.8778906,81.8415833	C13.1974745,83.0241623,14.0503902,84.5,15.4150572,84.5h26.3848305c1.3646698,0,2.2175827-1.4758377,1.5352516-2.6584167	L30.142725,58.9431686C29.4603901,57.760582,27.7526417,57.760582,27.0703087,58.9431686z"/></svg>