<svg xmlns="http://www.w3.org/2000/svg"  viewBox="0 0 24 24" width="24px" height="24px"><path fill="#00A8E0" d="M20.953,19.692c0.531-0.435,1.037-1.012,1.49-1.789c0.26-0.447,0.516-0.978,0.723-1.5	c0.01-0.025-0.006-0.038-0.025-0.01c-1.805,2.658-7.031,4.315-12.427,4.315c-3.814,0-7.919-1.22-9.526-3.55	c-0.016-0.021-0.031-0.012-0.022,0.012c1.497,3.183,6.038,4.921,11.648,4.921v0.001C15.768,22.092,19.013,21.286,20.953,19.692z"/><path fill="#00A8E0" d="M4.931,2.686c0,1.012,2.364,2.1,6.56,2.1c4.151,0,7.371-1.193,7.371-2.339c0-0.274-0.239-0.465-0.723-0.755	h-0.001C16.395,0.629,14.287,0,12.033,0C12.021,0,12.011,0,12,0C9.734,0,7.582,0.634,5.778,1.742	C5.237,2.075,4.931,2.342,4.931,2.686z"/><path fill="#00A8E0" d="M0.782,15.117c1.488,1.551,5.196,3.724,11.617,3.724c8.748,0,10.749-2.916,11.157-3.875	C23.849,14.28,24,13.041,24,12c0-0.253-0.006-0.453-0.016-0.651c0-0.032-0.018-0.034-0.025-0.003	c-0.437,2.345-7.912,5.466-14.371,5.466c-6.142,0-9.037-2.862-9.563-4.815C0.019,11.968,0,11.974,0,12	c0,0.657,0.066,1.505,0.179,2.069C0.232,14.343,0.456,14.773,0.782,15.117z"/><path fill="#00A8E0" d="M4.239,2.849c-0.622,0.53-1.176,1.105-1.669,1.73L2.551,4.604c-0.239,0.302-0.388,0.569-0.388,0.73	c0,2.333,5.849,4.025,11.318,4.025c5.827,0,8.428-1.903,8.428-3.575c0-0.597-0.232-0.947-0.827-1.624	c-0.387-0.44-0.751-0.798-1.138-1.151c-0.019-0.015-0.032-0.003-0.019,0.016C19.974,3.104,20,3.188,20,3.302	c0,1.333-4.08,3.692-10.573,3.692c-4.771,0-5.663-1.771-5.663-2.897c0-0.403,0.154-0.815,0.494-1.233	C4.276,2.84,4.261,2.83,4.239,2.849z"/><path fill="#00A8E0" d="M19.893,21.003c-0.947,0.631-3.645,2.013-7.894,2.013c-3.692,0-6.025-0.824-7.343-1.56	c-0.025-0.013-0.034,0.006-0.015,0.022C6.65,23.051,9.212,24,11.996,24c0.001,0,0.002,0,0.003,0c3.032,0,5.796-1.126,7.905-2.975	C19.93,21.003,19.918,20.988,19.893,21.003z"/><path fill="#00A8E0" d="M1.157,6.852C0.804,7.55,0.416,8.73,0.299,9.339C0.249,9.6,0.27,9.726,0.362,9.921	c0.735,1.564,4.458,4.063,13.144,4.063c5.299,0,9.415-1.303,10.082-3.678c0.122-0.438,0.129-0.9-0.029-1.522	c-0.176-0.696-0.506-1.506-0.786-2.076c-0.01-0.019-0.025-0.016-0.022,0.006c0.103,3.117-8.585,5.126-12.969,5.126	c-4.749,0-8.71-1.892-8.71-4.283c0-0.23,0.048-0.459,0.107-0.698C1.185,6.837,1.166,6.833,1.157,6.852z"/></svg>