<svg xmlns="http://www.w3.org/2000/svg"  viewBox="0 0 53 53" width="66px" height="66px"><g id="_x37_5"><path fill="#5b5e8b" d="M32.1098709,50.4731255H7.6143007c-2.053328,0-3.7178793-1.6645508-3.7178793-3.7178764V6.1910057 c0-2.053328,1.6645513-3.7178791,3.7178793-3.7178791h24.4955711c2.0533295,0,3.7178802,1.664551,3.7178802,3.7178791 V46.755249C35.8277512,48.8085747,34.1632004,50.4731255,32.1098709,50.4731255z"/><path fill="#312e4b" d="M9.9877253,50.4688835H7.6177301c-2.0599976,0-3.7199709-1.6599731-3.7199709-3.710022V6.1889143 c0-2.0500488,1.6599734-3.7200317,3.7199709-3.7200317h2.3699951c-2.0499878,0-3.7199707,1.6699829-3.7199707,3.7200317 v40.5699463C6.2677546,48.8089104,7.9377375,50.4688835,9.9877253,50.4688835z"/><path fill="#deddff" d="M7.6143732,48.4733391c-0.9472656,0-1.7177734-0.7709961-1.7177734-1.7182617V6.1911116 c0-0.9472656,0.7705078-1.7177734,1.7177734-1.7177734h24.4956055c0.9472656,0,1.7177734,0.7705078,1.7177734,1.7177734 v40.5639648c0,0.9472656-0.7705078,1.7182617-1.7177734,1.7182617H7.6143732z"/><path fill="#5b5e8b" d="M23.5610867,8.513052h-7.3980007c-0.4855165,0-0.9238863-0.2905827-1.1129808-0.737762 l-1.4579306-3.4477849H26.132L24.6740685,7.77529C24.4849739,8.2224693,24.0466042,8.513052,23.5610867,8.513052z"/><path fill="#312e4b" d="M22.8680992,6.8406558h-3.3527584c-0.3490906,0-0.6315708-0.2824802-0.6315708-0.6315718 c0-0.3490911,0.2824802-0.6315713,0.6315708-0.6315713h3.3527584c0.3490906,0,0.6315708,0.2824802,0.6315708,0.6315713 C23.49967,6.5581756,23.2171898,6.8406558,22.8680992,6.8406558z"/><path fill="#312e4b" d="M17.2483387,6.8406558h-0.3922653c-0.3490906,0-0.6315708-0.2824802-0.6315708-0.6315718 c0-0.3490911,0.2824802-0.6315713,0.6315708-0.6315713h0.3922653c0.3490925,0,0.6315727,0.2824802,0.6315727,0.6315713 C17.8799114,6.5581756,17.5974312,6.8406558,17.2483387,6.8406558z"/><path fill="#c6c6f7" d="M28.0710583,19.800354c0,4.5589046-3.6909485,8.4200439-8.4400024,8.4200439 c-4.5905256,0-8.4199829-3.7381001-8.4199829-8.4200439c0-4.6499643,3.7800293-8.4199839,8.4299927-8.4199839 C24.29109,11.3803701,28.0710583,15.1503897,28.0710583,19.800354z"/><path fill="#ab604b" d="M23.9797649,14.2513351v3.0857315h-8.9719181v-3.0857315 c0-2.4775248,2.0084305-4.4859552,4.4859543-4.4859552h0.0000095 C21.9713345,9.7653799,23.9797649,11.7738104,23.9797649,14.2513351z"/><path fill="#8b4f4f" d="M16.5330982,10.9049444c-0.9282894,0.8218489-1.5252275,2.009079-1.5252275,3.3463545v3.0857544h1.5252275 V10.9049444z"/><path fill="#46cc6b" d="M26.4810925,24.7103882c-1.5249882,2.1433353-4.0444641,3.5100098-6.8500366,3.5100098 c-2.758255,0-5.2511024-1.355257-6.7599487-3.4200439c0.6418819-1.2837639,1.8977327-2.2658863,3.3899536-2.4400024 c0.0923557-0.0460377,5.7500324-0.0299683,5.6500244-0.0299683c0.0448971,0,1.1926136,0.0050812,1.2299805,0.0299683 C24.6986217,22.5463562,25.6306915,23.4347858,26.4810925,24.7103882z"/><path fill="#179c5f" d="M22.486454,22.3391495v0.1265717c0,1.5364189-1.248579,2.7849979-2.7848587,2.7849979 c-1.5364189,0-2.7849979-1.248579-2.7849979-2.7849979v-0.1265717 C17.5071983,22.3187656,22.0212002,22.3230858,22.486454,22.3391495z"/><path fill="#ffaf93" d="M21.3383675,21.0534115l-0.0000076,1.4098091 c-0.0000057,0.9030666-0.7320862,1.6351452-1.6351547,1.6351452h-0.0000019c-0.9030743,0-1.6351604-0.73209-1.6351547-1.6351624 l0.0000076-1.4097919C19.1515656,21.8131313,20.2523327,21.8148022,21.3383675,21.0534115z"/><path fill="#ee8778" d="M18.0674019,21.0560131c0.0904026,0.9313889-0.2886143,1.9426632,0.5926113,2.6698761 c-0.1846924-0.8330994,0.4496326-1.3565578,1.0437431-1.2260666c0.5012646,0.1100979,1.0900536,0.0735989,1.6318932-0.1779518 v-1.2658577C20.205492,21.83955,19.1134758,21.7897015,18.0674019,21.0560131z"/><path fill="#ee8778" d="M15.8977222,15.6372156v2.3767004c-0.6454506-0.0137978-1.1657057-0.5396595-1.1657057-1.1883335 C14.7320166,16.1768436,15.2522717,15.6509809,15.8977222,15.6372156z"/><path fill="#ee8778" d="M23.3969135,15.6372156v2.3767004c0.6454506-0.0137978,1.1657047-0.5396595,1.1657047-1.1883335 C24.5626183,16.1768436,24.0423641,15.6509809,23.3969135,15.6372156z"/><g><path fill="#ffaf93" d="M23.3985519,15.4220371v2.7936077c0,2.0672417-1.6761818,3.7434235-3.7434235,3.7434235 c-2.1133766,0-3.7434244-1.6953163-3.7434244-3.7434235c-0.0005045-0.1006927-0.0148935-2.9756889-0.0139818-2.7936077 c0.1000738-0.0466413,1.7176399-0.2595682,3.5897961-1.8717546c0.1000271,0.0918064,0.3904419,1.8717546,3.6037769,1.8717546 H23.3985519z"/></g><g><path fill="#ee8778" d="M21.9091091,21.2047691c-2.4247322,1.8188591-6.0032587,0.1567307-6.0032587-2.9951401 c-0.0004692-0.1006927-0.0138264-2.9697218-0.0129786-2.7876396c0,0,0.246357-0.0389357,0.6483002-0.1685638 c0.000515,0.102684,0.0138092,2.7455368,0.0129776,2.5802193C16.5541496,20.649416,19.5142708,22.3697948,21.9091091,21.2047691z"/></g><g><path fill="#ee8778" d="M19.9482365,18.0556927v0.541172c0,0.1837158-0.1487389,0.3324528-0.3324528,0.3324528 c-0.1837177,0-0.3324547-0.148737-0.3324547-0.3324528v-0.541172c0-0.1837158,0.148737-0.3324528,0.3324547-0.3324528 C19.8013554,17.7232399,19.9482365,17.8743114,19.9482365,18.0556927z"/><path fill="#ee8778" d="M18.4611454,19.782692c0.1186008,0.5453873,0.6035137,0.9540806,1.1844254,0.9540806 c0.5809174,0.0000019,1.0658264-0.4086876,1.1844254-0.9540749L18.4611454,19.782692z"/><g><path fill="#312e4b" d="M18.5753269,16.7239037c-0.0764942-0.3517532-0.3892498-0.6153431-0.7639217-0.6153431 c-0.3746738,0-0.6874275,0.2635899-0.7639198,0.6153431H18.5753269z"/><path fill="#312e4b" d="M22.2487888,16.7239037c-0.0764942-0.3517532-0.3892498-0.6153431-0.7639217-0.6153431 c-0.3746738,0-0.6874256,0.2635899-0.7639198,0.6153431H22.2487888z"/></g></g><g><path fill="#65b9ff" d="M28.410038,36.5863304H11.3143139c-1.6189146,0-2.9313049-1.3123932-2.9313049-2.9313049v-0.0000076 c0-1.6189156,1.3123903-2.9313049,2.9313049-2.9313049H28.410038c1.6189137,0,2.9313049,1.3123894,2.9313049,2.9313049 v0.0000076C31.3413429,35.2739372,30.0289516,36.5863304,28.410038,36.5863304z"/><path fill="#65b9ff" d="M28.410038,44.3620033H11.3143139c-1.6189146,0-2.9313049-1.3123894-2.9313049-2.9313049v-0.0000076 c0-1.6189156,1.3123903-2.9313049,2.9313049-2.9313049H28.410038c1.6189137,0,2.9313049,1.3123894,2.9313049,2.9313049 v0.0000076C31.3413429,43.049614,30.0289516,44.3620033,28.410038,44.3620033z"/></g><g><path fill="#3e7fff" d="M13.7010632,36.5903931h-2.3899536c-1.6199951,0-2.9300537-1.3200073-2.9300537-2.9400024 c0-0.8099976,0.3300171-1.5400391,0.8600464-2.0700073c0.5299683-0.5300293,1.2600098-0.8599854,2.0700073-0.8599854h2.3899536 c-0.8099976,0-1.539978,0.3299561-2.0700073,0.8599854c-0.5299683,0.5299683-0.8599854,1.2600098-0.8599854,2.0700073 C10.7710705,35.2703857,12.081068,36.5903931,13.7010632,36.5903931z"/><path fill="#3e7fff" d="M13.7010632,44.3603516h-2.3899536c-1.6199951,0-2.9300537-1.3099976-2.9300537-2.9299927 c0-0.8099976,0.3300171-1.539978,0.8600464-2.0700073c0.5299683-0.5299683,1.2600098-0.8599854,2.0700073-0.8599854h2.3899536 c-0.8099976,0-1.539978,0.3300171-2.0700073,0.8599854c-0.5299683,0.5300293-0.8599854,1.2600098-0.8599854,2.0700073 C10.7710705,43.050354,12.081068,44.3603516,13.7010632,44.3603516z"/></g><g><path fill="#e83d62" d="M49.1035767,33.4401817v5.2581024c0,5.2914696-3.3165054,10.1495552-8.3662834,11.774498 c-0.0583382,0.0166817-0.1250153,0.0250206-0.1999855,0.0583344c-0.0666771-0.0333138-0.1333542-0.0416527-0.2083244-0.0583344 c-5.049778-1.6249428-8.3496532-6.4830284-8.3496532-11.774498v-5.2581024c0-0.3916245,0.2416363-0.7416458,0.6000004-0.8999748 l7.5746422-3.1998329c0.2416916-0.0999908,0.5166397-0.0999908,0.7583313,0l7.5913239,3.1998329 C48.8619423,32.6985359,49.1035767,33.0485573,49.1035767,33.4401817z"/></g><g><path fill="#ce2955" d="M47.0843811,34.5448952v4.214325c0,4.2222862-2.5934258,8.0491829-6.3571014,9.4961548 c-0.1264915,0.0474396-0.2609406,0.0474396-0.3874321,0c-3.7557602-1.4469719-6.34132-5.2738686-6.34132-9.4961548v-4.214325 c0-0.2055855,0.1265373-0.3874779,0.3162956-0.466526l6.0250244-2.5539017c0.1264915-0.0474396,0.2688065-0.0474396,0.3953438,0 l6.0329437,2.5539017C46.9578934,34.1574173,47.0843811,34.3393097,47.0843811,34.5448952z"/></g><g><path fill="#deddff" d="M41.7864189,40.3803711l0.4993057,2.3459435c0.0673027,0.3162155-0.1738358,0.6140785-0.4971313,0.6140785 h-2.4947777c-0.3231544,0-0.5642624-0.2976151-0.4972076-0.6137352l0.4998207-2.3562965 c-0.7299805-0.4199829-1.2099609-1.2099609-1.2099609-2.1099854c0-1.5630188,1.4745445-2.7909851,3.1199493-2.3644638 c0.8346977,0.2163696,1.5127296,0.9069748,1.715168,1.7451591 C43.2021027,38.8025322,42.6658401,39.8674164,41.7864189,40.3803711z"/></g><g><circle cx="14.175" cy="33.655" r="1.188" fill="#3e7fff"/><circle cx="17.966" cy="33.655" r="1.188" fill="#3e7fff"/><circle cx="21.758" cy="33.655" r="1.188" fill="#3e7fff"/><circle cx="25.55" cy="33.655" r="1.188" fill="#3e7fff"/><g><circle cx="14.175" cy="41.431" r="1.188" fill="#3e7fff"/><circle cx="17.966" cy="41.431" r="1.188" fill="#3e7fff"/><circle cx="21.758" cy="41.431" r="1.188" fill="#3e7fff"/><circle cx="25.55" cy="41.431" r="1.188" fill="#3e7fff"/></g></g></g></svg>