<svg xmlns="http://www.w3.org/2000/svg"  viewBox="0 0 24 24" width="24px" height="24px"><path fill="#E35050" d="M23.58,13.365c-0.078-0.065-0.172-0.114-0.276-0.137L23.3,13.226c-0.599,0.604-1.349,1.237-1.999,1.663	c-0.311,0.198-0.7,0.297-0.95,0.297c-0.59,0-0.84-0.545-0.91-1.426c-0.11-1.286-0.172-2.784-0.172-4.297	c0-0.163,0.001-0.325,0.002-0.486c-0.001-2.236-0.52-3.759-1.88-3.878l-0.18-0.01c-0.83,0-1.24,0.426-1.77,1.505	c-0.46,0.93-1.17,2.276-2.48,4.849c-1.061,2.075-2.207,3.861-3.5,5.525c-0.31,0.375-0.55,0.633-0.779,0.791	c-0.123,0.084-0.275,0.135-0.44,0.138H8.241c-0.429,0-0.75-0.356-0.849-1.197c-0.027-0.197-0.04-0.424-0.04-0.653v-0.029	c0-1.732,0.66-4.553,1.799-8.69c0.83-3.019,0.48-5.078-1.34-5.078h-0.03c-0.41,0-0.75,0.158-1.079,0.416	c-0.33,0.247-0.65,0.802-0.96,1.543c-0.341,0.831-2.42,4.979-5.741,7.127c-0.04,0.802,0.42,1.613,1.371,1.712	c0.85,0.08,1.46-0.276,2.24-0.801l-0.16,0.722c-0.166,0.644-0.341,1.515-0.479,2.399l-0.022,0.175	c-0.46,4.157,1.47,6.206,3.74,6.206c0.38,0,0.76-0.05,1.13-0.149c2.5-0.624,4.9-3.474,7.749-10.027	c-0.021,0.328-0.031,0.708-0.031,1.092c0,0.311,0.008,0.619,0.023,0.926c0.193,3.746,1.682,4.863,3.798,4.863	c1.6,0,3.09-0.822,3.85-1.852c0.474-0.592,0.768-1.344,0.79-2.162v-0.005c-0.02-0.486-0.17-0.872-0.42-1.069V13.365L23.58,13.365z"/><polygon points="15.564,13.484 15.563,13.458 15.562,13.439"/><path fill="#C64646" d="M7.812,2.25h-0.03c-0.41,0-0.75,0.158-1.079,0.416c-0.33,0.247-0.65,0.802-0.96,1.543	c-0.341,0.831-2.42,4.979-5.741,7.127C0.001,11.353,0,11.368,0,11.384v0.097c0.019,0.752,0.479,1.476,1.372,1.568	c0.08,0.008,0.158,0.011,0.235,0.011c0.732,0,1.299-0.337,2.005-0.812l-0.16,0.722c-0.166,0.644-0.341,1.515-0.479,2.399	l-0.022,0.175c-0.46,4.157,1.47,6.206,3.74,6.206c0.38,0,0.76-0.05,1.13-0.149c1.392-0.348,2.754-1.386,4.179-3.369v-5.026	c-0.788,1.354-1.627,2.589-2.539,3.763c-0.31,0.375-0.55,0.633-0.779,0.791c-0.123,0.084-0.275,0.135-0.44,0.138H8.241	c-0.429,0-0.75-0.356-0.849-1.197c-0.027-0.197-0.04-0.424-0.04-0.653v-0.029c0-1.732,0.66-4.553,1.799-8.69	C9.981,4.309,9.631,2.25,7.812,2.25L7.812,2.25z"/></svg>