<svg xmlns="http://www.w3.org/2000/svg"  viewBox="0 0 64 64" width="64px" height="64px"><path fill="#ee2028" d="M52.671,8.168c-4.87-0.5-7.341-2.446-8.571-3.541l-1.362,10.041c1.146,1.038,3.67,3.124,8.683,3.639 c3.513,0.361,6.356-0.489,8.086-1.213L61.07,6.818C59.386,7.565,56.411,8.552,52.671,8.168z"/><path fill="#f16324" d="M52.288,10.012c-4.663-0.479-7.044-2.223-8.383-3.381l-1.167,8.037 c1.146,1.038,3.671,3.124,8.683,3.639c3.532,0.363,6.365-0.492,8.087-1.217l1.364-8.508C59.224,9.336,56.162,10.41,52.288,10.012z"/><path fill="#f5d858" d="M52.156,11.754c-4.783-0.491-7.21-2.347-8.488-3.471l-0.93,6.384 c1.146,1.038,3.671,3.124,8.683,3.639c3.529,0.363,6.363-0.492,8.086-1.216l1.079-6.699C58.907,11.14,55.918,12.141,52.156,11.754z"/><path fill="#289e48" d="M51.999,13.44c-4.87-0.5-7.334-2.441-8.564-3.537l-0.696,4.763c1.146,1.038,3.671,3.124,8.683,3.639 c3.523,0.362,6.36-0.491,8.086-1.215l0.804-4.963C58.612,12.871,55.676,13.818,51.999,13.44z"/><path fill="#234191" d="M51.916,15.039c-5.028-0.517-7.56-2.62-8.695-3.651l-0.476,3.235 c1.106,1.009,3.657,3.162,8.733,3.683c3.469,0.356,6.289-0.468,8.025-1.186l0.544-3.314C58.321,14.535,55.461,15.403,51.916,15.039z"/><path fill="#793a88" d="M51.768,16.569c-5.109-0.525-7.675-2.714-8.759-3.707l-0.271,1.805 c1.146,1.038,3.671,3.124,8.683,3.639c3.516,0.361,6.357-0.489,8.086-1.214l0.292-1.717C58.07,16.095,55.257,16.927,51.768,16.569z"/><circle cx="18" cy="17" r="15" fill="#ee2028"/><path fill="#f16324" d="M3,17c0,8.284,6.716,15,15,15s15-6.716,15-15c0-3.847-1.461-7.345-3.842-10H6.842 C4.461,9.655,3,13.153,3,17z"/><path fill="#f5d858" d="M3,17c0,8.284,6.716,15,15,15s15-6.716,15-15c0-1.756-0.317-3.434-0.872-5H3.872 C3.317,13.566,3,15.244,3,17z"/><path fill="#289e48" d="M18,32c8.284,0,15-6.716,15-15H3C3,25.284,9.716,32,18,32z"/><path fill="#234191" d="M3.872,22c2.061,5.822,7.6,10,14.128,10s12.067-4.178,14.128-10H3.872z"/><path fill="#793a88" d="M6.842,27c2.746,3.062,6.721,5,11.158,5s8.412-1.938,11.158-5H6.842z"/><path fill="#3ca4e5" d="M30.562,47.504L30,52l2,2l-2,8h10l-2-8l2-2l-0.562-4.496C39.188,45.502,37.486,44,35.469,44h-0.938 C32.514,44,30.812,45.502,30.562,47.504z"/><path fill="#3ca4e5" d="M38,44h-6v-3c0-1.657,1.343-3,3-3h0c1.657,0,3,1.343,3,3V44z"/><circle cx="21" cy="41" r="3" fill="#478aea"/><path fill="#478aea" d="M16.562,47.504L16,52l2,2v8h6v-8l2-2l-0.562-4.496C25.188,45.502,23.486,44,21.469,44h-0.938 C18.514,44,16.812,45.502,16.562,47.504z"/><path fill="#389ad6" d="M32,41v3h3v-6C33.343,38,32,39.343,32,41z"/><path fill="#4280d9" d="M21,38v6c-1.657,0-3-1.343-3-3S19.343,38,21,38z"/><path fill="#4280d9" d="M16.562,47.504C16.812,45.502,18.514,44,20.531,44H21v18h-3v-8l-2-2L16.562,47.504z"/><circle cx="7" cy="41" r="3" fill="#478aea"/><path fill="#478aea" d="M2.562,47.504L2,52l2,2v8h6v-8l2-2l-0.562-4.496C11.188,45.502,9.486,44,7.469,44H6.531 C4.514,44,2.812,45.502,2.562,47.504z"/><path fill="#4280d9" d="M7,38v6c-1.657,0-3-1.343-3-3S5.343,38,7,38z"/><path fill="#4280d9" d="M2.562,47.504C2.812,45.502,4.514,44,6.531,44H7v18H4v-8l-2-2L2.562,47.504z"/><path fill="#389ad6" d="M35,62V44h-0.469c-2.017,0-3.719,1.502-3.969,3.504L30,52l2,2l-2,8H35z"/><path fill="#3ca4e5" d="M44.562,47.504L44,52l2,2l-2,8h10l-2-8l2-2l-0.562-4.496C53.188,45.502,51.486,44,49.469,44h-0.938 C46.514,44,44.812,45.502,44.562,47.504z"/><path fill="#3ca4e5" d="M52,44h-6v-3c0-1.657,1.343-3,3-3h0c1.657,0,3,1.343,3,3V44z"/><path fill="#389ad6" d="M46,41v3h3v-6C47.343,38,46,39.343,46,41z"/><path fill="#389ad6" d="M49,62V44h-0.469c-2.017,0-3.719,1.502-3.969,3.504L44,52l2,2l-2,8H49z"/><rect width="38.573" height="2.001" x="39.912" y="24.911" fill="#a6a6a6" transform="rotate(-84.623 59.199 25.911)"/><circle cx="18" cy="17" r="9" fill="#e2e2e2"/><path fill="#c62128" d="M19.082,14.652L18,15.702l-1.082-1.05c-0.896-0.87-2.35-0.87-3.246,0s-0.896,2.279,0,3.149L18,22 l4.328-4.199c0.896-0.87,0.896-2.279,0-3.149C21.431,13.783,19.978,13.783,19.082,14.652z"/></svg>